<svg xmlns="http://www.w3.org/2000/svg" xmlns:xlink="http://www.w3.org/1999/xlink" width="16" zoomAndPan="magnify"
     viewBox="0 0 375 374.999991" height="16" preserveAspectRatio="xMidYMid meet" version="1.0">
    <defs>
        <clipPath id="d4ad04e349">
            <path d="M 220 130.503906 L 373 130.503906 L 373 374.253906 L 220 374.253906 Z M 220 130.503906 "
                  clip-rule="nonzero"/>
        </clipPath>
        <mask id="mask">
            <path fill="white"
                  d="M 2.003906 27.9375 C 2.003906 13.207031 13.945312 1.265625 28.675781 1.265625 L 295.28125 1.265625 C 319.609375 1.265625 331.238281 31.160156 313.308594 47.597656 L 189.273438 161.296875 L 313.308594 274.992188 C 331.238281 291.429688 319.609375 321.328125 295.28125 321.328125 L 28.675781 321.328125 C 13.945312 321.328125 2.003906 309.386719 2.003906 294.65625 Z M 295.28125 27.9375 L 28.675781 27.9375 L 28.675781 294.65625 L 295.28125 294.65625 L 171.25 180.957031 C 159.71875 170.386719 159.71875 152.207031 171.25 141.636719 Z M 295.28125 27.9375 "
                  fill-opacity="1" fill-rule="evenodd"/>
            <path fill="black"
                  d="M 235.679688 206.675781 L 235.679688 267.613281 C 235.679688 292.851562 256.140625 313.316406 281.382812 313.316406 L 311.851562 313.316406 C 337.09375 313.316406 357.554688 292.851562 357.554688 267.613281 L 357.554688 206.675781 Z M 250.914062 191.441406 L 235.679688 191.441406 C 227.265625 191.441406 220.445312 198.261719 220.445312 206.675781 L 220.445312 267.613281 C 220.445312 296.007812 239.867188 319.863281 266.148438 326.628906 L 266.148438 359.019531 C 266.148438 367.433594 272.96875 374.253906 281.382812 374.253906 L 311.851562 374.253906 C 320.265625 374.253906 327.085938 367.433594 327.085938 359.019531 L 327.085938 326.628906 C 353.367188 319.863281 372.789062 296.007812 372.789062 267.613281 L 372.789062 206.675781 C 372.789062 198.261719 365.96875 191.441406 357.554688 191.441406 L 342.320312 191.441406 L 342.320312 138.121094 C 342.320312 133.914062 338.910156 130.503906 334.703125 130.503906 C 330.496094 130.503906 327.085938 133.914062 327.085938 138.121094 L 327.085938 191.441406 L 266.148438 191.441406 L 266.148438 138.121094 C 266.148438 133.914062 262.738281 130.503906 258.53125 130.503906 C 254.324219 130.503906 250.914062 133.914062 250.914062 138.121094 Z M 281.382812 328.550781 L 311.851562 328.550781 L 311.851562 359.019531 L 281.382812 359.019531 Z M 281.382812 328.550781 "
                  fill-opacity="1" fill-rule="nonzero" stroke="black" stroke-width="40"/>
        </mask>
    </defs>
    <path fill="#a571e6"
          d="M 2.003906 27.9375 C 2.003906 13.207031 13.945312 1.265625 28.675781 1.265625 L 295.28125 1.265625 C 319.609375 1.265625 331.238281 31.160156 313.308594 47.597656 L 189.273438 161.296875 L 313.308594 274.992188 C 331.238281 291.429688 319.609375 321.328125 295.28125 321.328125 L 28.675781 321.328125 C 13.945312 321.328125 2.003906 309.386719 2.003906 294.65625 Z M 295.28125 27.9375 L 28.675781 27.9375 L 28.675781 294.65625 L 295.28125 294.65625 L 171.25 180.957031 C 159.71875 170.386719 159.71875 152.207031 171.25 141.636719 Z M 295.28125 27.9375 "
          fill-opacity="1" fill-rule="evenodd" mask="url(#mask)"/>
    <path fill="#ced0d6"
          d="M 235.679688 206.675781 L 235.679688 267.613281 C 235.679688 292.851562 256.140625 313.316406 281.382812 313.316406 L 311.851562 313.316406 C 337.09375 313.316406 357.554688 292.851562 357.554688 267.613281 L 357.554688 206.675781 Z M 250.914062 191.441406 L 235.679688 191.441406 C 227.265625 191.441406 220.445312 198.261719 220.445312 206.675781 L 220.445312 267.613281 C 220.445312 296.007812 239.867188 319.863281 266.148438 326.628906 L 266.148438 359.019531 C 266.148438 367.433594 272.96875 374.253906 281.382812 374.253906 L 311.851562 374.253906 C 320.265625 374.253906 327.085938 367.433594 327.085938 359.019531 L 327.085938 326.628906 C 353.367188 319.863281 372.789062 296.007812 372.789062 267.613281 L 372.789062 206.675781 C 372.789062 198.261719 365.96875 191.441406 357.554688 191.441406 L 342.320312 191.441406 L 342.320312 138.121094 C 342.320312 133.914062 338.910156 130.503906 334.703125 130.503906 C 330.496094 130.503906 327.085938 133.914062 327.085938 138.121094 L 327.085938 191.441406 L 266.148438 191.441406 L 266.148438 138.121094 C 266.148438 133.914062 262.738281 130.503906 258.53125 130.503906 C 254.324219 130.503906 250.914062 133.914062 250.914062 138.121094 Z M 281.382812 328.550781 L 311.851562 328.550781 L 311.851562 359.019531 L 281.382812 359.019531 Z M 281.382812 328.550781 "
          fill-opacity="1" fill-rule="evenodd"/>
</svg>
