<svg version="1.2" xmlns="http://www.w3.org/2000/svg" viewBox="0 0 2000 2000" width="20" height="20">
    <clipPath id="clip">
        <path fill-rule="evenodd" class="b"
              d="m1218.6 944.1c-88.9 0.4-138.3 56.8-138.5 151.8-0.1 94.9 1.1 357.5 1.1 357.5 0 0-4.4 390.1 418 391.5 422.3 1.3-1589.2-8-1589.2-8.5 0-0.6 0-1906.4 0-1906.4h1897.9l-5.3 339.5-537.9 389.3 58.4 293.9"/>
    </clipPath>
    <path fill-rule="evenodd" class="a" clip-path="url(#clip)" fill="#CED0D6"
          d="m4.2 146.4c0-78.5 63.7-142.2 142.2-142.2h1422.2c129.8 0 191.8 159.4 96.1 247.1l-661.6 606.5 661.6 606.5c95.7 87.7 33.7 247.2-96.1 247.2h-1422.2c-78.5 0-142.2-63.7-142.2-142.3zm1564.4 0h-1422.2v1422.7h1422.2l-661.6-606.5c-61.5-56.3-61.5-153.3 0-209.7z"/>
    <path fill-rule="evenodd" class="a" fill="#CED0D6"
          d="m1329.7 1018h-81.5c-45 0-81.5 36.5-81.5 81.5v326c0 151.9 103.9 279.6 244.5 315.8v173.2c0 45 36.5 81.5 81.5 81.5h163c45 0 81.5-36.5 81.5-81.5v-173.2c140.6-36.2 244.5-163.9 244.5-315.8v-326c0-45-36.5-81.5-81.5-81.5h-81.5v-285.2c0-22.5-18.2-40.8-40.7-40.8-22.5 0-40.8 18.3-40.8 40.8v285.2h-326v-285.2c0-22.5-18.2-40.8-40.7-40.8-22.5 0-40.8 18.3-40.8 40.8zm-81.5 81.5v326c0 135 109.5 244.5 244.5 244.5h163c135 0 244.5-109.5 244.5-244.5v-326zm244.5 652h163v163h-163z"/>
</svg>
