<svg xmlns="http://www.w3.org/2000/svg" xmlns:xlink="http://www.w3.org/1999/xlink" width="512" zoomAndPan="magnify"
     viewBox="0 0 375 374.999991" height="512" preserveAspectRatio="xMidYMid meet" version="1.0">
    <defs>
        <clipPath id="d0483cc38b">
            <path d="M 218 129.753906 L 372 129.753906 L 372 374.253906 L 218 374.253906 Z M 218 129.753906 "
                  clip-rule="nonzero"/>
        </clipPath>
        <mask id="mask">
            <path fill="white"
                  d="M 0.78125 27.457031 C 0.78125 12.726562 12.726562 0.78125 27.457031 0.78125 L 294.109375 0.78125 C 318.441406 0.78125 330.070312 30.683594 312.136719 47.125 L 188.082031 160.839844 L 312.136719 274.554688 C 330.070312 290.996094 318.441406 320.898438 294.109375 320.898438 L 27.457031 320.898438 C 12.726562 320.898438 0.78125 308.953125 0.78125 294.222656 Z M 294.109375 27.457031 L 27.457031 27.457031 L 27.457031 294.222656 L 294.109375 294.222656 L 170.054688 180.503906 C 158.523438 169.933594 158.523438 151.75 170.054688 141.175781 Z M 294.109375 27.457031 "
                  fill-opacity="1" fill-rule="evenodd"/>
            <path fill="black"
                  d="M 234.039062 206.160156 L 234.039062 267.285156 C 234.039062 292.605469 254.5625 313.128906 279.882812 313.128906 L 310.445312 313.128906 C 335.765625 313.128906 356.289062 292.605469 356.289062 267.285156 L 356.289062 206.160156 Z M 249.320312 190.878906 L 234.039062 190.878906 C 225.601562 190.878906 218.757812 197.71875 218.757812 206.160156 L 218.757812 267.285156 C 218.757812 295.765625 238.238281 319.699219 264.601562 326.484375 L 264.601562 358.972656 C 264.601562 367.414062 271.445312 374.253906 279.882812 374.253906 L 310.445312 374.253906 C 318.886719 374.253906 325.726562 367.414062 325.726562 358.972656 L 325.726562 326.484375 C 352.089844 319.699219 371.570312 295.765625 371.570312 267.285156 L 371.570312 206.160156 C 371.570312 197.71875 364.730469 190.878906 356.289062 190.878906 L 341.007812 190.878906 L 341.007812 137.394531 C 341.007812 133.175781 337.585938 129.753906 333.367188 129.753906 C 329.148438 129.753906 325.726562 133.175781 325.726562 137.394531 L 325.726562 190.878906 L 264.601562 190.878906 L 264.601562 137.394531 C 264.601562 133.175781 261.179688 129.753906 256.960938 129.753906 C 252.742188 129.753906 249.320312 133.175781 249.320312 137.394531 Z M 279.882812 328.410156 L 310.445312 328.410156 L 310.445312 358.972656 L 279.882812 358.972656 Z M 279.882812 328.410156 "
                  fill-opacity="1" fill-rule="nonzero" stroke="black" stroke-width="40"/>
        </mask>
    </defs>
    <path fill="#834df0"
          d="M 0.78125 27.457031 C 0.78125 12.726562 12.726562 0.78125 27.457031 0.78125 L 294.109375 0.78125 C 318.441406 0.78125 330.070312 30.683594 312.136719 47.125 L 188.082031 160.839844 L 312.136719 274.554688 C 330.070312 290.996094 318.441406 320.898438 294.109375 320.898438 L 27.457031 320.898438 C 12.726562 320.898438 0.78125 308.953125 0.78125 294.222656 Z M 294.109375 27.457031 L 27.457031 27.457031 L 27.457031 294.222656 L 294.109375 294.222656 L 170.054688 180.503906 C 158.523438 169.933594 158.523438 151.75 170.054688 141.175781 Z M 294.109375 27.457031 "
          fill-opacity="1" fill-rule="evenodd" mask="url(#mask)"/>
    <path fill="#6c707e"
          d="M 234.039062 206.160156 L 234.039062 267.285156 C 234.039062 292.605469 254.5625 313.128906 279.882812 313.128906 L 310.445312 313.128906 C 335.765625 313.128906 356.289062 292.605469 356.289062 267.285156 L 356.289062 206.160156 Z M 249.320312 190.878906 L 234.039062 190.878906 C 225.601562 190.878906 218.757812 197.71875 218.757812 206.160156 L 218.757812 267.285156 C 218.757812 295.765625 238.238281 319.699219 264.601562 326.484375 L 264.601562 358.972656 C 264.601562 367.414062 271.445312 374.253906 279.882812 374.253906 L 310.445312 374.253906 C 318.886719 374.253906 325.726562 367.414062 325.726562 358.972656 L 325.726562 326.484375 C 352.089844 319.699219 371.570312 295.765625 371.570312 267.285156 L 371.570312 206.160156 C 371.570312 197.71875 364.730469 190.878906 356.289062 190.878906 L 341.007812 190.878906 L 341.007812 137.394531 C 341.007812 133.175781 337.585938 129.753906 333.367188 129.753906 C 329.148438 129.753906 325.726562 133.175781 325.726562 137.394531 L 325.726562 190.878906 L 264.601562 190.878906 L 264.601562 137.394531 C 264.601562 133.175781 261.179688 129.753906 256.960938 129.753906 C 252.742188 129.753906 249.320312 133.175781 249.320312 137.394531 Z M 279.882812 328.410156 L 310.445312 328.410156 L 310.445312 358.972656 L 279.882812 358.972656 Z M 279.882812 328.410156 "
          fill-opacity="1" fill-rule="evenodd"/>
</svg>
